<?xml version="1.0" standalone="no"?>
<!DOCTYPE svg PUBLIC "-//W3C//DTD SVG 20010904//EN"
 "http://www.w3.org/TR/2001/REC-SVG-20010904/DTD/svg10.dtd">
<svg version="1.0" xmlns="http://www.w3.org/2000/svg"
 width="827.000000pt" height="316.000000pt" viewBox="0 0 827.000000 316.000000"
 preserveAspectRatio="xMidYMid meet">

<g transform="translate(0.000000,316.000000) scale(0.100000,-0.100000)"
fill="#000000" stroke="none">
<path d="M2230 2811 c-76 -11 -100 -20 -100 -37 0 -17 41 -34 78 -33 24 1 23
2 -10 13 -94 29 -39 41 187 41 160 -1 192 -4 286 -27 171 -43 363 -136 469
-227 l35 -30 -83 35 c-90 39 -176 53 -210 35 -18 -9 -19 -15 -11 -43 5 -17 7
-34 4 -36 -2 -3 -39 7 -82 20 -43 14 -122 36 -175 49 l-98 23 -24 -24 c-53
-49 -167 -35 -263 33 -34 24 -48 28 -76 23 -20 -4 -46 -1 -61 5 -54 25 -105
-35 -61 -71 12 -10 22 -8 52 10 21 12 39 18 40 13 2 -4 16 -30 31 -58 21 -38
39 -57 80 -78 64 -35 65 -48 17 -148 -25 -53 -35 -87 -35 -122 0 -64 -23 -117
-50 -117 -26 0 -36 26 -45 115 -15 158 -36 184 -149 195 -42 4 -83 13 -91 20
-24 20 -18 63 15 106 16 21 30 47 30 56 0 38 -87 31 -173 -14 -22 -11 -41 -17
-43 -15 -3 2 14 23 37 45 45 46 146 115 227 156 28 14 52 31 52 36 0 14 0 14
-87 -21 -106 -42 -210 -100 -303 -170 -83 -63 -233 -215 -225 -229 3 -4 33 7
67 26 75 40 177 69 211 60 14 -3 49 -26 78 -51 30 -25 74 -52 99 -59 70 -21
139 -56 155 -79 8 -12 15 -39 15 -60 l0 -39 -39 31 c-21 17 -44 31 -49 31 -6
0 -27 -11 -47 -24 -36 -25 -63 -35 -142 -56 -49 -12 -67 -38 -58 -80 7 -33 48
-70 77 -70 10 0 52 25 92 55 103 78 119 77 173 -5 56 -84 54 -104 -9 -108 -42
-3 -51 1 -85 32 -58 56 -82 47 -104 -35 -16 -61 -8 -82 26 -69 14 5 25 7 25 4
0 -3 -42 -62 -94 -130 -52 -69 -108 -151 -125 -182 l-30 -57 -12 33 c-8 24
-19 34 -41 39 -18 4 -34 16 -44 35 -17 34 -28 30 -53 -20 -32 -62 -36 -123
-13 -175 25 -57 52 -74 123 -79 53 -3 58 -1 87 30 43 46 49 45 161 -30 14 -10
47 -21 73 -24 55 -7 194 -90 215 -127 22 -40 15 -85 -27 -164 -32 -62 -40 -87
-40 -130 0 -37 -8 -69 -25 -103 -32 -63 -31 -71 5 -148 29 -62 38 -102 22
-102 -19 0 -164 84 -177 103 -39 56 -68 104 -96 160 -47 93 -52 97 -129 97
-77 0 -90 9 -90 62 0 30 -8 47 -37 79 -34 37 -38 48 -38 94 1 35 8 64 23 89
12 21 20 42 17 47 -3 5 -36 28 -74 52 -105 68 -144 141 -174 318 -13 79 -29
96 -62 63 -14 -15 -18 -15 -26 -3 -15 23 -29 82 -29 120 0 88 85 311 176 460
38 64 40 69 20 69 -39 0 -142 -161 -188 -297 -32 -91 -44 -232 -41 -463 5
-454 270 -868 688 -1077 101 -51 201 -87 287 -103 58 -10 69 -10 82 3 9 8 21
17 28 19 10 4 10 13 0 49 -21 68 -25 106 -13 113 7 5 11 -6 11 -31 0 -22 6
-48 14 -59 12 -16 18 -17 33 -7 55 38 120 73 137 73 11 0 40 -22 65 -49 52
-56 87 -69 146 -53 65 17 184 26 162 12 -36 -23 -216 -61 -331 -70 -118 -9
-156 -21 -126 -40 23 -15 190 -12 268 5 82 17 164 48 205 77 17 12 62 37 101
56 119 57 236 141 341 247 301 301 419 708 330 1139 -17 84 -55 196 -88 261
-38 77 -139 225 -153 225 -8 0 -30 -32 -49 -71 -40 -83 -52 -99 -72 -99 -12 0
-10 7 6 34 33 52 28 78 -24 120 -81 67 -139 80 -210 47 -22 -10 -58 -21 -80
-25 -55 -11 -79 -25 -163 -95 -40 -34 -77 -61 -82 -61 -17 0 -23 -49 -10 -81
9 -20 22 -32 40 -36 16 -3 32 -15 39 -29 6 -13 27 -32 46 -41 45 -21 58 -10
77 67 9 40 19 58 37 66 13 7 40 34 60 61 43 57 65 62 69 16 3 -25 -3 -39 -25
-59 -15 -14 -36 -33 -46 -42 -18 -17 -19 -60 -1 -105 8 -22 -69 -60 -121 -60
-22 0 -69 11 -104 23 -56 21 -68 22 -108 11 -54 -14 -62 -10 -34 18 12 12 21
25 21 31 0 18 -83 120 -93 113 -10 -6 -4 -97 9 -140 4 -17 2 -23 -8 -23 -10 0
-13 8 -10 28 2 19 -3 33 -17 46 -43 39 -57 -28 -18 -92 16 -26 21 -46 17 -67
-6 -32 -8 -33 -86 -20 -34 6 -45 3 -68 -16 -38 -33 -46 -94 -16 -131 30 -39
71 -37 145 8 103 63 134 62 162 -3 16 -41 19 -39 53 29 14 28 30 52 35 52 6 1
11 -15 13 -34 5 -50 15 -55 60 -26 52 33 88 42 107 26 40 -33 1 -59 -108 -70
-48 -5 -71 -12 -81 -26 -13 -17 -15 -17 -74 0 -111 34 -212 6 -267 -72 -25
-36 -30 -55 -33 -115 -2 -40 1 -91 7 -114 16 -58 69 -124 113 -141 39 -15 44
-14 125 34 l33 19 37 -37 c36 -37 37 -37 23 -77 -11 -36 -11 -43 2 -58 13 -15
15 -35 11 -110 -5 -81 -3 -95 16 -126 14 -24 21 -51 21 -86 0 -45 4 -57 29
-82 31 -31 74 -38 101 -16 19 14 90 140 90 158 0 7 10 34 23 60 18 40 27 48
49 49 34 0 83 42 109 92 55 107 -48 80 -123 -32 l-17 -25 0 23 c-2 56 56 119
163 177 139 77 143 94 41 168 -37 27 -70 59 -76 75 -28 72 -56 115 -110 172
-35 36 -59 71 -59 84 0 18 2 17 19 -9 10 -16 52 -54 93 -84 85 -61 108 -91
144 -185 43 -110 82 -120 182 -45 96 73 141 163 93 189 -11 5 -43 10 -71 10
-46 0 -56 4 -100 42 -53 46 -90 112 -73 129 7 7 30 -6 72 -41 63 -53 115 -80
151 -80 11 0 23 -7 26 -15 10 -25 31 -17 45 16 12 29 13 30 26 13 7 -10 13
-28 13 -41 0 -13 5 -23 10 -23 14 0 12 25 -5 66 -17 41 -34 40 -53 0 -13 -25
-15 -26 -31 -12 -10 9 -25 16 -35 16 -31 0 -81 27 -135 73 -82 70 -128 59 -95
-22 9 -24 39 -60 73 -90 54 -46 63 -50 117 -53 57 -3 59 -4 62 -32 3 -24 -7
-39 -65 -96 -112 -109 -150 -105 -198 21 -33 85 -51 108 -130 165 -61 43 -76
58 -135 134 -45 58 -51 62 -84 56 -17 -4 -48 -18 -68 -31 l-38 -25 0 35 c0 23
-6 37 -19 44 -25 14 -46 -3 -66 -53 l-16 -39 -20 33 c-19 30 -23 32 -63 28
-25 -3 -65 -20 -99 -42 -62 -39 -106 -46 -131 -20 -23 23 -20 80 5 105 22 22
39 22 121 3 19 -4 29 -2 31 7 2 8 9 28 14 46 8 22 7 35 0 42 -14 14 -4 23 25
22 13 -1 37 -1 53 0 17 0 53 1 80 1 32 1 69 -7 103 -22 48 -21 57 -22 95 -11
23 7 57 21 75 32 18 10 47 19 63 19 55 0 124 49 101 72 -8 8 -26 3 -67 -17
-31 -15 -59 -25 -61 -22 -3 3 -8 23 -11 44 -5 35 -2 41 36 71 44 36 61 84 42
121 -20 36 -47 25 -91 -35 -23 -30 -52 -59 -65 -64 -17 -6 -27 -22 -35 -52
-14 -58 -28 -88 -38 -88 -17 0 -62 41 -62 56 0 8 9 14 19 14 29 0 79 46 65 59
-14 15 -71 -5 -85 -30 -5 -11 -20 -19 -34 -19 -43 0 -62 70 -24 90 11 6 45 34
76 62 58 52 122 87 161 88 12 0 40 9 62 20 68 35 133 22 203 -40 43 -37 45
-55 16 -105 -24 -41 -17 -59 22 -53 18 2 33 21 64 80 22 42 43 79 47 83 10 10
112 -150 153 -239 46 -98 82 -242 96 -379 46 -454 -167 -891 -556 -1140 -130
-83 -152 -91 -240 -92 -44 -1 -110 -7 -146 -15 -84 -17 -114 -6 -158 56 -23
32 -39 44 -57 44 -29 0 -100 -34 -132 -63 -28 -26 -40 -15 -44 43 -3 51 -29
66 -48 29 -10 -17 -9 -35 5 -86 10 -35 15 -67 12 -70 -4 -3 -29 2 -56 11 -27
9 -57 16 -65 16 -21 0 -20 -16 0 -24 9 -4 14 -9 11 -12 -10 -10 -193 58 -288
108 -332 173 -556 469 -635 838 -19 89 -32 360 -17 360 21 0 34 -76 22 -130
-13 -60 -1 -104 26 -94 22 9 29 50 18 101 -9 37 -8 47 7 65 22 27 40 16 40
-26 0 -42 34 -175 55 -216 26 -51 83 -108 141 -141 30 -17 54 -32 54 -34 0 -3
-9 -19 -20 -37 -13 -22 -20 -51 -20 -86 0 -58 11 -85 47 -119 17 -16 23 -33
23 -63 0 -27 7 -47 21 -61 19 -19 29 -21 80 -15 69 7 78 0 123 -91 16 -32 39
-71 51 -88 11 -16 27 -41 33 -55 14 -28 48 -52 139 -100 99 -51 117 -26 63 88
-36 77 -37 86 -5 154 16 35 25 71 25 105 0 41 8 68 40 128 44 84 49 125 21
170 -26 44 -163 127 -224 136 -30 5 -69 22 -101 43 -73 51 -127 53 -153 7 -15
-26 -21 -28 -62 -24 -75 7 -88 11 -105 38 -29 44 -32 115 -7 171 l22 49 14
-25 c8 -15 25 -27 42 -30 23 -4 31 -13 41 -48 8 -23 18 -42 22 -42 4 0 21 28
38 63 16 34 75 123 130 198 114 152 130 195 60 158 -11 -6 -22 -9 -24 -7 -2 3
3 28 11 56 18 60 41 68 73 27 35 -44 108 -59 150 -29 12 8 22 22 22 30 0 25
-83 156 -106 166 -26 12 -77 -12 -152 -71 -28 -23 -61 -41 -72 -41 -29 0 -60
35 -60 69 0 32 5 35 89 57 30 8 76 27 102 42 l48 27 35 -34 c49 -47 70 -38 64
29 -3 30 -13 59 -24 71 -23 26 -95 63 -151 78 -23 6 -63 30 -90 52 -77 64 -95
71 -157 60 -29 -5 -78 -21 -109 -35 -31 -14 -57 -21 -57 -16 0 10 113 115 183
169 53 40 205 131 221 131 4 0 -19 -18 -53 -41 -91 -61 -160 -149 -117 -149 8
0 43 13 78 30 63 30 128 40 128 19 0 -6 -11 -25 -25 -43 -30 -40 -41 -86 -26
-114 13 -24 67 -42 129 -42 85 0 106 -31 121 -175 11 -104 28 -138 64 -133 36
5 59 50 64 124 4 52 14 86 39 135 19 36 34 77 34 91 0 29 -29 57 -80 78 -22 9
-39 29 -60 70 -16 32 -26 60 -23 64 12 12 51 6 74 -13 47 -36 113 -63 168 -68
49 -4 61 -2 96 22 38 27 42 27 100 16 34 -6 111 -27 173 -46 62 -20 117 -33
123 -29 6 3 9 22 7 43 -3 36 -3 36 40 39 65 5 201 -47 310 -119 49 -32 38 -8
-20 47 -154 145 -378 256 -601 299 -95 19 -307 27 -387 16z m-131 -200 c11 -7
7 -13 -17 -25 -39 -20 -42 -20 -42 2 0 32 28 42 59 23z m-766 -383 c-41 -65
-83 -154 -114 -243 -15 -44 -28 -70 -28 -57 -2 55 82 249 134 310 37 44 40 40
8 -10z m1473 -103 c-11 -8 -25 -15 -30 -15 -6 0 -2 7 8 15 11 8 25 15 30 15 6
0 2 -7 -8 -15z m-266 -4 c0 -5 12 -24 27 -41 20 -24 24 -36 17 -48 -25 -39
-43 -20 -58 61 -4 23 -3 37 4 37 5 0 10 -4 10 -9z m-50 -97 c0 -13 -4 -24 -10
-24 -5 0 -10 14 -10 31 0 17 4 28 10 24 6 -3 10 -17 10 -31z m570 1 c-14 -8
-32 -14 -40 -14 -9 0 -4 6 10 14 14 8 32 14 40 14 9 0 4 -6 -10 -14z m-140
-315 c0 -11 31 -54 70 -95 47 -52 75 -92 87 -126 21 -59 34 -74 108 -129 30
-22 55 -44 55 -48 -1 -17 -21 -33 -105 -81 -49 -29 -101 -62 -114 -74 -36 -34
-64 -103 -57 -143 5 -25 0 -46 -19 -83 -14 -28 -25 -57 -25 -65 0 -8 -10 -31
-22 -49 -13 -19 -31 -49 -40 -66 -13 -24 -24 -31 -48 -31 -47 0 -70 30 -70 93
0 32 -6 61 -16 75 -27 39 -34 82 -24 151 7 52 6 71 -6 97 -12 26 -13 37 -4 54
6 12 9 32 6 45 -7 26 -70 85 -91 85 -9 0 -34 -13 -57 -30 -52 -38 -78 -38
-123 1 -67 59 -95 150 -75 245 26 126 152 187 285 139 54 -20 68 -19 83 5 10
16 23 20 66 20 30 0 69 7 87 15 45 19 49 19 49 -5z m-1690 -160 c0 -22 -4 -40
-10 -40 -11 0 -13 39 -4 64 10 26 14 19 14 -24z m1890 -445 c0 -22 -96 -119
-109 -110 -15 8 25 80 58 106 29 23 51 24 51 4z m-380 -700 c0 -2 -30 -14 -67
-25 -82 -25 -274 -46 -298 -33 -12 7 16 12 92 16 59 4 142 15 183 26 87 22 90
22 90 16z"/>
<path d="M4878 2407 c-11 -12 -17 -48 -21 -144 -11 -257 -106 -650 -232 -964
-44 -108 -106 -219 -124 -219 -10 0 -25 58 -41 155 -5 33 -14 195 -20 360 -12
365 -27 609 -42 681 -15 75 -45 106 -100 102 -41 -3 -43 -5 -61 -52 -10 -28
-22 -97 -27 -155 -9 -103 -15 -883 -7 -912 54 -189 78 -226 183 -276 64 -30
82 -35 128 -31 31 3 68 14 91 28 81 50 166 225 260 537 95 310 141 534 152
728 6 106 5 112 -18 138 -30 35 -97 48 -121 24z"/>
<path d="M6630 2214 c-6 -14 -10 -29 -10 -33 0 -5 -6 -13 -13 -19 -16 -13
-201 -44 -220 -36 -19 7 -29 -20 -17 -50 15 -40 43 -49 132 -41 l81 7 -5 -23
c-3 -13 -29 -121 -57 -238 -46 -188 -57 -221 -87 -263 -20 -26 -47 -57 -62
-68 -24 -19 -26 -20 -35 -4 -6 10 -7 64 -4 127 7 137 -4 166 -64 167 -22 0
-32 -10 -57 -58 -37 -69 -151 -232 -163 -232 -9 0 0 34 31 110 53 133 137 247
162 222 16 -16 28 -15 28 1 0 20 -32 46 -71 57 -53 15 -107 -5 -157 -58 -41
-43 -122 -189 -122 -219 0 -27 -134 -149 -184 -168 -62 -24 -80 -14 -84 47 -9
139 93 348 170 348 41 0 32 20 -22 48 -54 28 -132 26 -171 -3 -66 -50 -138
-192 -139 -273 0 -25 -11 -45 -47 -83 -44 -47 -48 -49 -61 -32 -11 14 -13 42
-8 130 4 70 3 120 -3 132 -12 21 -63 43 -78 32 -5 -3 -25 -35 -45 -71 -54 -97
-152 -228 -156 -208 -7 37 104 262 152 307 21 20 28 22 40 12 27 -23 39 -1 15
25 -30 32 -85 46 -131 34 -80 -23 -196 -201 -220 -339 -11 -66 -11 -71 13
-117 16 -31 36 -54 61 -66 32 -17 40 -18 70 -5 25 11 44 34 83 101 27 47 53
86 56 86 4 0 10 -13 14 -28 10 -46 99 -122 143 -122 35 0 77 26 99 60 l19 30
21 -28 c38 -52 110 -92 165 -92 57 0 94 17 160 71 l46 39 12 -35 c16 -49 63
-85 110 -85 43 0 73 28 115 109 13 25 30 55 38 66 15 20 16 19 27 -10 6 -16
26 -45 43 -63 58 -61 112 -77 155 -46 27 18 27 15 7 -76 -21 -97 -19 -222 4
-268 24 -47 83 -82 109 -66 14 9 18 28 20 100 3 115 135 968 153 990 8 10 155
24 387 38 64 3 79 16 66 53 -16 48 -45 55 -189 49 -71 -3 -158 -9 -192 -12
l-62 -7 -15 37 c-18 42 -42 47 -56 10z"/>
<path d="M6782 1973 c-27 -53 -18 -139 15 -150 13 -5 63 97 63 128 0 35 -62
52 -78 22z"/>
<path d="M7693 1858 c-37 -26 -115 -128 -159 -205 -16 -29 -31 -53 -34 -53 -3
0 -3 24 -2 54 4 66 -9 93 -55 112 -40 17 -69 11 -78 -17 -5 -15 -17 -19 -53
-21 -86 -4 -136 3 -198 24 -53 19 -65 20 -92 9 -50 -21 -112 -132 -112 -203 0
-21 -13 -43 -46 -78 -46 -49 -74 -63 -74 -37 0 8 7 58 15 112 16 111 10 134
-42 158 -23 10 -28 8 -54 -22 -33 -40 -59 -110 -59 -160 0 -70 61 -155 115
-161 47 -5 68 2 109 40 l43 40 23 -25 c35 -37 104 -75 137 -75 43 0 97 43 124
97 18 37 23 64 22 118 0 39 -2 79 -4 90 -4 18 2 20 57 23 l62 3 -14 -58 c-38
-161 -3 -263 97 -288 22 -6 31 -1 51 27 14 18 37 62 53 98 64 149 173 339 187
325 3 -3 -6 -59 -20 -126 -22 -107 -23 -127 -13 -175 10 -43 21 -61 54 -90 51
-43 80 -56 113 -48 69 18 194 183 164 219 -20 25 -37 17 -63 -28 -14 -24 -47
-63 -74 -88 l-48 -44 -3 30 c-2 17 1 71 7 120 28 226 6 325 -73 325 -18 0 -46
-10 -63 -22z m-531 -203 c18 -39 -6 -129 -46 -173 -18 -19 -35 -31 -38 -26 -8
13 17 143 35 187 19 43 33 47 49 12z"/>
</g>
</svg>
